<svg xmlns="http://www.w3.org/2000/svg" viewBox="0 0 192 192" width="192" height="192">
  <!-- Background circle -->
  <circle cx="96" cy="96" r="88" fill="#3b82f6" stroke="#2563eb" stroke-width="4"/>
  
  <!-- Psychology symbol: Head silhouette with heart -->
  <g fill="white">
    <!-- Head/mind silhouette -->
    <path d="M66 66 C66 46, 86 36, 96 36 C106 36, 126 46, 126 66 C126 86, 116 96, 116 106 L116 126 C116 136, 106 146, 96 146 C86 146, 76 136, 76 126 L76 106 C76 96, 66 86, 66 66 Z"/>
    
    <!-- Heart inside representing care and empathy -->
    <path d="M86 76 C82 70, 76 70, 76 78 C76 84, 86 92, 96 100 C106 92, 116 84, 116 78 C116 70, 110 70, 106 76 C102 72, 100 72, 96 76 C92 72, 90 72, 86 76 Z"/>
    
    <!-- Growth dots -->
    <circle cx="80" cy="56" r="3"/>
    <circle cx="112" cy="56" r="3"/>
    <circle cx="96" cy="46" r="2"/>
  </g>
  
  <!-- Subtle outer elements for professional touch -->
  <g fill="rgba(255,255,255,0.3)">
    <circle cx="96" cy="24" r="2"/>
    <circle cx="96" cy="168" r="2"/>
    <circle cx="24" cy="96" r="2"/>
    <circle cx="168" cy="96" r="2"/>
  </g>
</svg>