<svg xmlns="http://www.w3.org/2000/svg" viewBox="0 0 100 100" width="100" height="100">
  <!-- Background circle for better visibility -->
  <circle cx="50" cy="50" r="48" fill="#3b82f6" stroke="#2563eb" stroke-width="2"/>
  
  <!-- Psychology symbol: Head silhouette with heart -->
  <g fill="white">
    <!-- Head/mind silhouette -->
    <path d="M35 35 C35 25, 45 20, 50 20 C55 20, 65 25, 65 35 C65 45, 60 50, 60 55 L60 65 C60 70, 55 75, 50 75 C45 75, 40 70, 40 65 L40 55 C40 50, 35 45, 35 35 Z"/>
    
    <!-- Small heart inside representing care and empathy -->
    <path d="M45 40 C43 37, 40 37, 40 41 C40 44, 45 48, 50 52 C55 48, 60 44, 60 41 C60 37, 57 37, 55 40 C53 38, 52 38, 50 40 C48 38, 47 38, 45 40 Z"/>
    
    <!-- Small dots representing growth/healing -->
    <circle cx="42" cy="30" r="1.5"/>
    <circle cx="58" cy="30" r="1.5"/>
    <circle cx="50" cy="25" r="1"/>
  </g>
</svg>